<svg xmlns="http://www.w3.org/2000/svg" fill-rule="evenodd" viewBox="0 0 100 100">
    <path d="M49.695 10.704c-.234-.013-1.33.002-1.391.004-21.183.417-38.312 17.638-38.574 38.857-.003.263-.011 1.161.012 1.438.5 21.01 17.531 37.988 38.562 38.402.153.005.305.02.459.02.04 0 .08-.005.12-.005.069 0 .136.005.205.005 21.708 0 39.369-17.661 39.369-39.37 0-21.503-17.334-39.024-38.762-39.351zm35.729 38.07H70.976c-.256-14.822-4.925-27.333-11.818-33.656 14.775 4.265 25.708 17.66 26.266 33.656zM47.588 13.763v35.011H29.55c.345-18.72 8.204-33.884 18.038-35.011zm0 38.011v34.577c-9.758-1.119-17.574-16.056-18.032-34.577h18.032zm3 34.483V51.774h17.383c-.448 18.108-7.93 32.792-17.383 34.483zm0-37.483V13.857c9.529 1.705 17.051 16.611 17.389 34.917H50.588zM38.05 15.405c-6.721 6.413-11.248 18.774-11.5 33.368h-13.8c.546-15.645 11.016-28.808 25.3-33.368zM12.762 51.774h13.795c.334 14.406 4.841 26.585 11.495 32.934-14.154-4.518-24.568-17.479-25.29-32.934zm46.395 33.222c6.827-6.262 11.474-18.59 11.813-33.222h14.443c-.739 15.805-11.614 28.995-26.256 33.222z"/>
</svg>
