<svg viewBox="0 0 32 32" fill="none" xmlns="http://www.w3.org/2000/svg">
    <path
        d="M0.449288 14.26C4.77633 19.1908 9.40526 23.8197 13.7323 28.8512C14.1348 29.3543 15.0405 29.153 15.3424 28.6499C20.4744 20.1971 25.5059 11.7442 30.4367 3.09015C31.1411 1.8826 29.9336 0.976941 29.1285 2.18449C25.0753 8.40475 22.5886 12.2092 20.7382 15.0652C18.1766 19.0187 16.8343 21.1546 14.2436 25.3649C13.8233 25.0043 13.4599 24.5503 13.0715 24.1546C12.0972 23.1622 11.1152 22.2073 10.1213 21.2752C7.26371 18.5953 4.30755 16.1042 1.15369 13.4549C0.751175 13.0524 0.0467725 13.7568 0.449288 14.26Z"
        fill="black" />
</svg>