<svg xmlns="http://www.w3.org/2000/svg" viewBox="0 0 100 100" fill-rule="evenodd"><rect x="0" y="0" width="100" height="100" fill="#e2e2e2" rx="50" ry="50"></rect><g class="t-group-origins" style="transform-origin:center;transform:scale(0.58);"><path d="M41.779 73.231c7.675 0 13.92-6.245 13.92-13.92s-6.245-13.92-13.92-13.92-13.92 6.245-13.92 13.92 6.245 13.92 13.92 13.92zm0-24.84c6.021 0 10.92 4.898 10.92 10.92s-4.898 10.92-10.92 10.92-10.92-4.898-10.92-10.92 4.898-10.92 10.92-10.92zm-30.794-1.5h3v24.84h-3zm58.117 0h3v24.84h-3z" stroke-width="0" stroke="#000000" fill="#000000" stroke-width-old="0"></path><path d="M96.683 19.21H20.434v8.898h-8.201v9.726H3.318v42.954h76.249v-9.726h8.915v-8.898h8.2V19.21h.001zM76.567 77.788H6.318V40.834h70.249v36.954zm8.915-9.725h-5.915V37.834H15.233v-6.726h70.25l-.001 36.955zm8.201-8.899h-5.2V28.108H23.434V22.21h70.249v36.954z" stroke-width="0" stroke="#000000" fill="#000000" stroke-width-old="0"></path></g></svg>
