<svg xmlns="http://www.w3.org/2000/svg" fill-rule="evenodd" viewBox="0 0 100 100">
    <path d="M90.223 70.444a13.755 13.755 0 0 0-9.338-5.016 13.761 13.761 0 0 0-12.367 5.353l-4.921-4.54a1.453 1.453 0 1 0-1.971 2.137l5.348 4.934a13.839 13.839 0 0 0-1.26 4.517 13.761 13.761 0 0 0 3.06 10.148 13.762 13.762 0 0 0 9.342 5.016c.471.047.939.07 1.407.07 3.184 0 6.245-1.088 8.742-3.131a13.761 13.761 0 0 0 5.017-9.339 13.764 13.764 0 0 0-3.059-10.149zm.167 9.858a10.872 10.872 0 0 1-3.965 7.38 10.875 10.875 0 0 1-8.021 2.419 10.87 10.87 0 0 1-7.381-3.964 10.866 10.866 0 0 1-2.417-8.019 10.863 10.863 0 0 1 3.96-7.378 10.865 10.865 0 0 1 8.028-2.421 10.864 10.864 0 0 1 7.378 3.965 10.867 10.867 0 0 1 2.418 8.018zM55.888 42.136a1.452 1.452 0 1 0 2.906 0c0-4.467-4.006-8.162-9.186-8.754v-7.065a1.452 1.452 0 1 0-2.906 0v7.066c-5.18.593-9.187 4.287-9.187 8.754 0 4.465 4.007 8.158 9.187 8.75v11.87c-3.571-.523-6.28-2.939-6.28-5.835a1.452 1.452 0 1 0-2.906 0c0 4.47 4.007 8.167 9.187 8.758v7.06a1.452 1.452 0 1 0 2.906 0v-7.061c5.179-.594 9.185-4.289 9.185-8.757 0-4.466-4.005-8.161-9.185-8.755V36.305c3.57.524 6.279 2.937 6.279 5.831zm-15.466 0c0-2.893 2.709-5.307 6.28-5.831v11.659c-3.571-.524-6.28-2.936-6.28-5.828zm15.465 14.785c0 2.894-2.708 5.308-6.278 5.834V51.088c3.57.526 6.278 2.94 6.278 5.833zM16.955 32.762a13.751 13.751 0 0 0 11.262-4.078l5.525 5.096c.279.258.633.385.985.385a1.453 1.453 0 0 0 .985-2.521L30.028 26.4a13.782 13.782 0 0 0 2.093-6.039 13.754 13.754 0 0 0-3.059-10.147 13.75 13.75 0 0 0-9.343-5.018A13.743 13.743 0 0 0 9.568 8.257C3.656 13.09 2.78 21.833 7.613 27.747a13.761 13.761 0 0 0 9.342 5.015zm-5.548-22.255a10.868 10.868 0 0 1 8.022-2.418 10.865 10.865 0 0 1 7.383 3.965 10.865 10.865 0 0 1 2.417 8.018 10.874 10.874 0 0 1-3.963 7.38 10.883 10.883 0 0 1-8.022 2.418 10.876 10.876 0 0 1-7.382-3.962c-3.818-4.674-3.126-11.582 1.545-15.401zm56.114 18.1a13.737 13.737 0 0 0 7.929 3.548 13.74 13.74 0 0 0 10.149-3.059 13.769 13.769 0 0 0 5.018-9.341 13.76 13.76 0 0 0-3.059-10.147 13.754 13.754 0 0 0-9.337-5.017 13.764 13.764 0 0 0-10.159 3.061 13.752 13.752 0 0 0-5.013 9.337 13.74 13.74 0 0 0 2.539 9.446l-5.471 5.046a1.453 1.453 0 1 0 1.97 2.136l5.434-5.01zm-1.58-11.328a10.864 10.864 0 0 1 3.961-7.377 10.866 10.866 0 0 1 8.029-2.42 10.86 10.86 0 0 1 7.376 3.964 10.873 10.873 0 0 1 2.418 8.019 10.873 10.873 0 0 1-3.966 7.381 10.837 10.837 0 0 1-8.02 2.417 10.875 10.875 0 0 1-7.381-3.964 10.882 10.882 0 0 1-2.417-8.02zM34.175 65.771l-5.529 5.102a13.73 13.73 0 0 0-8.92-4.555 13.759 13.759 0 0 0-10.158 3.061 13.744 13.744 0 0 0-5.013 9.338 13.759 13.759 0 0 0 3.059 10.149 13.762 13.762 0 0 0 9.342 5.016c.471.047.94.07 1.407.07 3.185 0 6.247-1.089 8.744-3.132a13.75 13.75 0 0 0 5.015-9.338 13.734 13.734 0 0 0-1.761-8.239l5.785-5.339a1.453 1.453 0 1 0-1.971-2.133zM29.23 81.193a10.867 10.867 0 0 1-3.963 7.378 10.881 10.881 0 0 1-8.022 2.42 10.869 10.869 0 0 1-7.381-3.964 10.878 10.878 0 0 1-2.417-8.021 10.864 10.864 0 0 1 3.961-7.377 10.865 10.865 0 0 1 8.027-2.419 10.86 10.86 0 0 1 7.378 3.965 10.87 10.87 0 0 1 2.417 8.018z"/>
</svg>
