<?xml version="1.0" encoding="UTF-8"?> <svg xmlns="http://www.w3.org/2000/svg" viewBox="0 0 100 100" fill-rule="evenodd"> <g style="transform-origin: center center; transform: scale(0.6);"> <path d="M76.21 9H24.79A3.79 3.79 0 0 0 21 12.79v76.42A3.79 3.79 0 0 0 24.79 93h51.42A3.79 3.79 0 0 0 80 89.21V12.79A3.79 3.79 0 0 0 76.21 9Zm-51.42 3h51.42a.8.8 0 0 1 .79.79V75H24V12.79a.79.79 0 0 1 .79-.79Zm51.42 78H24.79a.8.8 0 0 1-.79-.79V78h53v11.21a.8.8 0 0 1-.79.79Z"></path> <path d="M42.5 21h16a1.5 1.5 0 0 0 0-3h-16a1.5 1.5 0 0 0 0 3Zm7.99 60.6A2.5 2.5 0 1 0 53 84.09a2.49 2.49 0 0 0-2.51-2.49ZM35.43 63a1.5 1.5 0 0 0 1.43 1h27.28a1.5 1.5 0 0 0 1.43-1l5.86-18a1.47 1.47 0 0 0-.22-1.34A1.49 1.49 0 0 0 70 43h-9.19L57 32.27a1.5 1.5 0 1 0-2.83 1L57.63 43H43.58L47 33.26a1.51 1.51 0 0 0-.92-1.91 1.49 1.49 0 0 0-1.91.92L40.4 43H31a1.49 1.49 0 0 0-1.21.62 1.47 1.47 0 0 0-.22 1.38Zm3.91-17-1.15 3.26a1.5 1.5 0 0 0 2.83 1l1.5-4.26h16.16l1.51 4.26a1.49 1.49 0 0 0 1.41 1 1.42 1.42 0 0 0 .5-.08 1.51 1.51 0 0 0 .9-1.92L61.87 46h6.06l-4.88 15H38l-4.93-15Z"></path> </g> </svg> 