<?xml version="1.0" encoding="UTF-8"?> <svg xmlns:xlink="http://www.w3.org/1999/xlink" xmlns="http://www.w3.org/2000/svg" width="80" height="88" viewBox="0 0 80 88" fill="none"><path d="M79.1 9C78.8 8.7 78.4 8.5 78 8.5H62.8V1.5C62.8 0.7 62.1 0 61.3 0H18.6C17.8 0 17.1 0.7 17.1 1.5V8.5H1.5C1.1 8.5 0.700001 8.7 0.400001 9C0.100001 9.3 0 9.7 0 10.1C0 10.4 0.3 16.8 2.6 24.2C5.8 34.1 11.2 41.1 18.4 44.3C20.8 52.3 26.3 58.6 33.2 61.1V61.4C33.2 69.7 26.9 76.3 18.8 76.3C18 76.3 17.3 77 17.3 77.8V86.3C17.3 87.1 18 87.8 18.8 87.8H61.3C62.1 87.8 62.8 87.1 62.8 86.3V77.8C62.8 77 62.1 76.3 61.3 76.3C53.1 76.3 46.4 69.6 46.4 61.4V61.2C53.6 58.7 59.2 52.3 61.6 44.1C68.5 40.8 73.8 33.9 76.9 24.2C79.3 16.8 79.5 10.3 79.5 10.1C79.6 9.7 79.4 9.3 79.1 9ZM3.1 11.5H17.1V35.5C17.1 37.2 17.2 38.8 17.5 40.4C6.1 33.6 3.6 16.7 3.1 11.5ZM59.8 79.2V84.7H20.3V79.2C29.1 78.5 35.9 71.2 36.1 61.9C37.3 62.1 38.6 62.3 39.9 62.3C41.1 62.3 42.3 62.2 43.4 62C43.8 71.1 50.9 78.5 59.8 79.2ZM43.9 58.9C42.6 59.2 41.3 59.4 40 59.4C38.5 59.4 37 59.2 35.6 58.8C35.3 58.7 34.8 58.5 34.6 58.5C26.3 55.7 20.1 46.5 20.1 35.6V3.1H59.8V9.1V11V35.6C59.8 46.5 53.6 55.7 45.2 58.5L43.9 58.9ZM62.5 40.2C62.7 38.7 62.9 37.1 62.9 35.5V11.5H76.5C76 16.7 73.6 33.1 62.5 40.2Z" fill="#DB9809"></path><path d="M54.4004 21L46.2004 19.8L42.5004 12.3C42.1004 11.5 41.2004 10.9 40.3004 10.9C39.4004 10.9 38.5004 11.4 38.1004 12.3L34.4004 19.8L26.2004 21C25.3004 21.1 24.5004 21.8 24.2004 22.7C23.9004 23.6 24.1004 24.6 24.8004 25.2L30.8004 31L29.4004 39.2C29.2004 40.1 29.6004 41 30.4004 41.6C30.8004 41.9 31.3004 42.1 31.9004 42.1C32.3004 42.1 32.7004 42 33.0004 41.8L40.6004 38L47.8004 41.8C48.6004 42.2 49.6004 42.2 50.4004 41.6C51.2004 41 51.5004 40.1 51.4004 39.2L50.0004 31L56.0004 25.2C56.7004 24.5 56.9004 23.6 56.6004 22.7C56.1004 21.8 55.4004 21.1 54.4004 21ZM47.2004 29.4C46.8004 29.7 46.7004 30.2 46.8004 30.7L48.2004 38.6L41.3004 35C40.9004 34.8 40.4004 34.8 39.9004 35L32.5004 38.7L33.9004 30.7C34.0004 30.2 33.8004 29.7 33.5004 29.4L27.8004 23.8L35.7004 22.6C36.2004 22.5 36.6004 22.2 36.8004 21.8L40.3004 14.6L43.8004 21.8C44.0004 22.2 44.4004 22.6 44.9004 22.6L52.8004 23.8L47.2004 29.4Z" fill="#DB9809"></path></svg> 