<?xml version="1.0" encoding="UTF-8"?> <svg xmlns="http://www.w3.org/2000/svg" viewBox="1949.8235 2449.824 100.353 100.352" width="100.353" height="100.352" data-guides="{&quot;vertical&quot;:[],&quot;horizontal&quot;:[]}"><path fill="rgb(0, 0, 0)" stroke="none" fill-opacity="1" stroke-width="1" stroke-opacity="1" color="rgb(51, 51, 51)" font-size-adjust="none" id="tSvg18aaf8d3fcc" title="Path 1" d="M 1999.8245 2456.402 C 1975.8815 2456.402 1956.4035 2475.881 1956.4035 2499.823C 1956.4035 2523.766 1975.8825 2543.244 1999.8245 2543.244C 2023.7665 2543.244 2043.2455 2523.765 2043.2455 2499.823C 2043.2445 2475.881 2023.7665 2456.402 1999.8245 2456.402ZM 1998.3245 2540.207 C 1977.2275 2539.431 1960.2155 2522.419 1959.4405 2501.323C 1963.4234999999999 2501.323 1967.4065 2501.323 1971.3895 2501.323C 1972.1465 2515.833 1983.8145 2527.501 1998.3245 2528.2580000000003C 1998.3245 2532.241 1998.3245 2536.224 1998.3245 2540.207ZM 1998.3245 2525.25 C 1985.4705 2524.5 1975.1485 2514.177 1974.3975 2501.323C 1978.5931666666665 2501.323 1982.7888333333333 2501.323 1986.9845 2501.323C 1987.6734999999999 2507.257 1992.3905 2511.973 1998.3245 2512.663C 1998.3245 2516.8586666666665 1998.3245 2521.0543333333335 1998.3245 2525.25ZM 1998.3245 2509.631 C 1994.0484999999999 2508.9790000000003 1990.6685 2505.599 1990.0165 2501.323C 1992.7858333333334 2501.323 1995.5551666666665 2501.323 1998.3245 2501.323C 1998.3245 2504.0923333333335 1998.3245 2506.8616666666667 1998.3245 2509.631ZM 1990.0155 2498.323 C 1990.6675 2494.047 1994.0475 2490.667 1998.3235 2490.015C 1998.3235 2492.7843333333335 1998.3235 2495.5536666666667 1998.3235 2498.323C 1995.5541666666666 2498.323 1992.7848333333334 2498.323 1990.0155 2498.323ZM 1998.3245 2486.983 C 1992.3905 2487.6730000000002 1987.6745 2492.389 1986.9845 2498.323C 1982.7888333333333 2498.323 1978.5931666666665 2498.323 1974.3975 2498.323C 1975.1485 2485.469 1985.4705 2475.147 1998.3245 2474.397C 1998.3245 2478.5923333333335 1998.3245 2482.7876666666666 1998.3245 2486.983ZM 1998.3245 2471.389 C 1983.8145 2472.146 1972.1465 2483.814 1971.3895 2498.323C 1967.4065 2498.323 1963.4234999999999 2498.323 1959.4405 2498.323C 1960.2155 2477.227 1977.2275 2460.215 1998.3245 2459.44C 1998.3245 2463.4230000000002 1998.3245 2467.406 1998.3245 2471.389ZM 2001.3235 2459.44 C 2022.4205 2460.215 2039.4325 2477.227 2040.2065 2498.323C 2036.2235 2498.323 2032.2404999999999 2498.323 2028.2575 2498.323C 2027.5004999999999 2483.814 2015.8325 2472.146 2001.3235 2471.389C 2001.3235 2467.406 2001.3235 2463.4230000000002 2001.3235 2459.44ZM 2009.6325 2501.323 C 2008.9805 2505.599 2005.6005 2508.9790000000003 2001.3245 2509.631C 2001.3245 2506.8616666666667 2001.3245 2504.0923333333335 2001.3245 2501.323C 2004.0938333333334 2501.323 2006.8631666666665 2501.323 2009.6325 2501.323ZM 2001.3245 2498.323 C 2001.3245 2495.5536666666667 2001.3245 2492.7843333333335 2001.3245 2490.015C 2005.6005 2490.667 2008.9805 2494.047 2009.6325 2498.323C 2006.8631666666665 2498.323 2004.0938333333334 2498.323 2001.3245 2498.323ZM 2012.6644999999999 2501.323 C 2016.8601666666666 2501.323 2021.0558333333333 2501.323 2025.2514999999999 2501.323C 2024.5014999999999 2514.177 2014.1785 2524.4990000000003 2001.3255 2525.25C 2001.3251666666665 2521.0543333333335 2001.3248333333333 2516.8586666666665 2001.3245 2512.663C 2007.2585 2511.973 2011.9745 2507.257 2012.6644999999999 2501.323ZM 2001.3235 2474.396 C 2014.1775 2475.147 2024.4995 2485.469 2025.2495 2498.322C 2021.0541666666666 2498.322 2016.8588333333332 2498.322 2012.6634999999999 2498.322C 2012.6634999999999 2498.3223333333335 2012.6634999999999 2498.322666666667 2012.6634999999999 2498.323C 2011.9735 2492.389 2007.2575 2487.6730000000002 2001.3235 2486.983C 2001.3235 2482.787333333333 2001.3235 2478.5916666666667 2001.3235 2474.396ZM 2001.3245 2540.206 C 2001.3245 2536.223 2001.3245 2532.2400000000002 2001.3245 2528.257C 2015.8335 2527.5 2027.5014999999999 2515.832 2028.2585 2501.322C 2032.2415 2501.322 2036.2245 2501.322 2040.2075 2501.322C 2039.4325 2522.419 2022.4205 2539.431 2001.3245 2540.206Z"></path><defs></defs></svg> 