<?xml version="1.0" encoding="UTF-8"?> <svg xmlns="http://www.w3.org/2000/svg" width="45" height="40" viewBox="0 0 45 40" fill="none"> <path d="M18.55 0.249994C18.65 0.149995 18.8 0.0999959 19 0.0999959C19.3 0.0999959 19.55 0.299996 19.75 0.699997C19.95 1.1 19.9 1.4 19.6 1.59999C12.9 7.5 9 13.8 7.9 20.5C7.8 21 7.75 21.65 7.75 22.45C7.75 23.25 7.8 23.8 7.9 24.1C8.6 23.4 9.8 23.05 11.5 23.05C14 23.05 15.95 23.85 17.35 25.45C18.75 27.05 19.45 28.95 19.45 31.15C19.45 33.55 18.65 35.6 17.05 37.3C15.55 39 13.3 39.85 10.3 39.85C7.2 39.85 4.8 38.9 3.1 37C1.5 35.1 0.7 32.45 0.7 29.05C0.7 27.05 0.9 25.2 1.3 23.5C2.1 19.6 4.1 15.5 7.3 11.2C10.5 6.9 14.25 3.25 18.55 0.249994ZM43 0.249994C43.1 0.149995 43.25 0.0999959 43.45 0.0999959C43.75 0.0999959 44 0.299996 44.2 0.699997C44.4 1.1 44.35 1.4 44.05 1.59999C37.35 7.5 33.45 13.8 32.35 20.5C32.25 21 32.2 21.65 32.2 22.45C32.2 23.25 32.25 23.8 32.35 24.1C33.05 23.4 34.25 23.05 35.95 23.05C38.45 23.05 40.4 23.85 41.8 25.45C43.2 27.05 43.9 28.95 43.9 31.15C43.9 33.55 43.1 35.6 41.5 37.3C40 39 37.75 39.85 34.75 39.85C31.65 39.85 29.25 38.9 27.55 37C25.95 35.1 25.15 32.45 25.15 29.05C25.15 27.05 25.35 25.2 25.75 23.5C26.55 19.6 28.55 15.5 31.75 11.2C34.95 6.9 38.7 3.25 43 0.249994Z" fill="#393939"></path> </svg> 