<?xml version="1.0" encoding="UTF-8"?> <svg xmlns:xlink="http://www.w3.org/1999/xlink" xmlns="http://www.w3.org/2000/svg" width="1226" height="1700" viewBox="0 0 1226 1700" fill="none"><path d="M1225.74 0H0V1699.97H1225.74V0Z" fill="#DB9809"></path><path d="M1148.57 1526C1148.57 1517.07 1151.04 1508.31 1155.69 1500.68C1160.35 1493.06 1167.02 1486.87 1174.97 1482.79V221.26C1166.37 217.451 1159.06 211.225 1153.92 203.34C1148.79 195.454 1146.06 186.248 1146.06 176.84C1146.06 167.432 1148.79 158.226 1153.92 150.34C1159.06 142.455 1166.37 136.229 1174.97 132.42V47.25H1086.3C1082.62 56.1157 1076.39 63.6913 1068.4 69.0206C1060.42 74.3499 1051.03 77.1941 1041.43 77.1941C1031.83 77.1941 1022.44 74.3499 1014.46 69.0206C1006.47 63.6913 1000.24 56.1157 996.56 47.25H230.76C227.015 55.9926 220.787 63.4441 212.847 68.6805C204.908 73.917 195.606 76.7082 186.095 76.7082C176.584 76.7082 167.282 73.917 159.343 68.6805C151.403 63.4441 145.175 55.9926 141.43 47.25H48V127.14C56.4777 131.004 63.665 137.226 68.7048 145.062C73.7447 152.898 76.4244 162.018 76.4244 171.335C76.4244 180.652 73.7447 189.772 68.7048 197.608C63.665 205.444 56.4777 211.666 48 215.53V1486.14C49.971 1485.9 51.9544 1485.78 53.94 1485.77C60.5806 1485.75 67.1542 1487.1 73.2547 1489.72C79.3552 1492.34 84.853 1496.19 89.4087 1501.02C93.9644 1505.85 97.4811 1511.57 99.7417 1517.81C102.002 1524.06 102.959 1530.7 102.552 1537.33C102.145 1543.95 100.384 1550.43 97.3764 1556.35C94.3692 1562.27 90.1801 1567.51 85.0678 1571.75C79.9554 1575.99 74.0285 1579.13 67.6529 1580.99C61.2774 1582.85 54.5887 1583.38 48 1582.55V1657.7H165.44C169.747 1650.48 175.856 1644.49 183.169 1640.34C190.482 1636.18 198.749 1634 207.16 1634C215.571 1634 223.838 1636.18 231.151 1640.34C238.464 1644.49 244.573 1650.48 248.88 1657.7H995.36C999.371 1649.57 1005.58 1642.73 1013.27 1637.94C1020.97 1633.16 1029.85 1630.62 1038.92 1630.62C1047.98 1630.62 1056.86 1633.16 1064.56 1637.94C1072.25 1642.73 1078.46 1649.57 1082.47 1657.7H1175V1569.22C1167.04 1565.15 1160.37 1558.95 1155.7 1551.33C1151.04 1543.7 1148.57 1534.94 1148.57 1526Z" fill="#EEEEEE"></path><path d="M439 685.29C464.556 664.639 492.649 647.365 522.592 633.893C526.72 632.038 531.232 630.218 535.605 631.35C543.641 633.414 543.141 670.335 546.211 678.407C550.014 688.405 561.329 693.327 571.586 692.569C581.843 691.811 591.205 686.631 600.241 681.569C622.674 668.982 660.597 640.74 667.528 643.831C676.622 646.969 671.657 661.096 671.727 671.14C671.808 682.735 679.402 694.191 690.147 696.862C700.893 699.533 788.288 662.858 814 639.084" stroke="#DB9809" stroke-width="10" stroke-miterlimit="10"></path><path d="M325.2 830.92C516.2 833.82 709.32 834.46 900.2 826.83" stroke="#DB9809" stroke-width="10" stroke-miterlimit="10"></path><path d="M328.34 893.61C526.06 901.86 705 895.76 902.89 893.24" stroke="#DB9809" stroke-width="10" stroke-miterlimit="10"></path><path d="M327.13 957.18C518.13 951.09 713.13 958.99 904.18 952.89" stroke="#DB9809" stroke-width="10" stroke-miterlimit="10"></path></svg> 