<?xml version="1.0" encoding="UTF-8"?> <svg xmlns="http://www.w3.org/2000/svg" width="174" height="174" viewBox="0 0 174 174" fill="none"> <circle cx="87.5" cy="87.5" r="8.5" fill="#4D473A"></circle> <path d="M87.4352 160.814L87.0129 170.745L83.3062 170.587C82.2152 170.541 81.3155 170.278 80.6072 169.8C79.8892 169.33 79.3597 168.71 79.0189 167.938C78.6776 167.177 78.5264 166.339 78.5652 165.425C78.6081 164.418 78.8505 163.55 79.2925 162.821C79.7345 162.093 80.3373 161.539 81.1007 161.161C81.8548 160.782 82.7308 160.614 83.7285 160.656L87.4352 160.814ZM80.9011 165.524C80.8639 166.401 81.0622 167.119 81.4961 167.679C81.93 168.24 82.5619 168.538 83.3919 168.573L84.8046 168.633L85.0556 162.73L83.6429 162.67C83.0834 162.646 82.6024 162.752 82.2001 162.987C81.7973 163.232 81.4885 163.573 81.2737 164.013C81.0495 164.452 80.9253 164.955 80.9011 165.524Z" fill="#4D473A"></path> <path d="M76.0309 159.923L74.1236 169.678L69.7268 168.818C69.2688 168.729 68.8663 168.55 68.5192 168.283C68.1611 168.023 67.8714 167.704 67.6502 167.328C67.4271 166.961 67.2762 166.566 67.1975 166.141C67.1096 165.715 67.1051 165.301 67.1839 164.898C67.3021 164.293 67.5579 163.763 67.9513 163.307C68.3338 162.859 68.7937 162.55 69.3311 162.379L67.8969 158.332L70.3838 158.819L71.6373 162.33L73.1624 162.629L73.7776 159.482L76.0309 159.923ZM72.7782 164.593L70.7172 164.19C70.4516 164.139 70.1984 164.217 69.9577 164.427C69.7152 164.646 69.5555 164.952 69.4785 165.346C69.4014 165.74 69.4496 166.078 69.6228 166.359C69.7943 166.649 70.0083 166.819 70.2648 166.869L72.2571 167.259L72.7782 164.593Z" fill="#4D473A"></path> <path d="M61.5495 155.985C62.2437 156.234 62.8293 156.592 63.3061 157.06C63.771 157.534 64.1298 158.069 64.3824 158.665C64.6319 159.269 64.7659 159.892 64.7843 160.533C64.7996 161.183 64.6987 161.811 64.4817 162.418C64.2616 163.033 63.9367 163.581 63.5069 164.061C63.0652 164.547 62.5593 164.936 61.989 165.228C61.4068 165.525 60.7845 165.699 60.1222 165.749C59.4598 165.8 58.7902 165.704 58.1136 165.462C57.4194 165.213 56.8398 164.852 56.3749 164.379C55.8981 163.911 55.5393 163.376 55.2986 162.774C55.0491 162.169 54.9167 161.542 54.9014 160.892C54.883 160.251 54.9791 159.636 55.1898 159.048C55.41 158.433 55.7409 157.882 56.1826 157.396C56.6123 156.915 57.1183 156.526 57.7005 156.229C58.2707 155.937 58.8886 155.762 59.5541 155.703C60.2077 155.649 60.8729 155.743 61.5495 155.985ZM62.2899 161.603C62.4628 161.12 62.5341 160.63 62.5037 160.133C62.4701 159.646 62.3175 159.199 62.0459 158.795C61.7743 158.39 61.3749 158.094 60.8476 157.905C60.3028 157.71 59.7999 157.689 59.339 157.841C58.8693 157.99 58.4695 158.249 58.1397 158.616C57.7979 158.99 57.5437 159.409 57.377 159.875C57.204 160.358 57.1387 160.845 57.1811 161.336C57.2115 161.833 57.3641 162.279 57.6389 162.675C57.9048 163.068 58.3014 163.358 58.8287 163.547C59.3735 163.742 59.8808 163.765 60.3505 163.616C60.8083 163.472 61.2065 163.218 61.5451 162.854C61.8749 162.486 62.1232 162.069 62.2899 161.603Z" fill="#4D473A"></path> <path d="M54.9838 153.277L50.3111 162.05L46.567 160.056C46.1469 159.832 45.8099 159.542 45.5561 159.184C45.2896 158.831 45.1055 158.442 45.0036 158.018C44.8974 157.602 44.8687 157.179 44.9173 156.75C44.9659 156.321 45.0867 155.926 45.2798 155.563C45.5518 155.053 45.9279 154.634 46.4081 154.308C46.8801 153.978 47.4029 153.781 47.9766 153.716C48.5459 153.66 49.1107 153.781 49.6708 154.079L51.4502 155.027L52.9573 152.197L54.9838 153.277ZM50.5091 156.794L48.8533 155.912C48.6144 155.785 48.3536 155.778 48.0709 155.892C47.7882 156.006 47.5416 156.26 47.331 156.656C47.116 157.059 47.061 157.411 47.1661 157.71C47.2585 158.013 47.42 158.226 47.6507 158.349L49.2323 159.191L50.5091 156.794Z" fill="#4D473A"></path> <path d="M35.362 139.328L31.4028 143.732L35.8785 141.958L36.8155 142.8L35.5256 147.439L39.4848 143.035L41.1923 144.57L34.5468 151.962L32.6936 150.296L34.2504 144.711L28.8518 146.842L27.0091 145.185L33.6545 137.793L35.362 139.328Z" fill="#4D473A"></path> <path d="M25.9505 131.413L27.5141 130.141L31.9237 135.559L24.2139 141.833L19.8839 136.513L21.4476 135.24L24.3284 138.78L25.8269 137.561L23.3526 134.52L24.7968 133.345L27.2711 136.385L28.9108 135.051L25.9505 131.413Z" fill="#4D473A"></path> <path d="M12.5737 124.219L11.4852 121.993L18.9143 114.558L19.9475 116.671L18.286 118.34L19.6451 121.12L21.9769 120.821L23.0101 122.934L12.5737 124.219ZM17.0308 119.375L14.1077 122.097L18.064 121.488L17.0308 119.375Z" fill="#4D473A"></path> <path d="M16.3175 106.179L6.63136 108.411L6.11579 106.173L13.8374 104.394L12.756 99.701L14.7205 99.2483L16.3175 106.179Z" fill="#4D473A"></path> <path d="M14.4382 96.2833L4.55821 97.3735L4.30638 95.0914L14.1864 94.0011L14.4382 96.2833Z" fill="#4D473A"></path> <path d="M8.20224 86.9117L13.8855 87.0048L13.8478 89.3005L3.90918 89.1376L3.93901 87.3178L9.86572 82.8084L4.01451 82.7125L4.05214 80.4168L13.9908 80.5797L13.9601 82.4554L8.20224 86.9117Z" fill="#4D473A"></path> <path d="M13.5958 70.6398L15.5854 70.9652L14.4578 77.8596L4.64815 76.2552L5.75541 69.4851L7.74497 69.8105L7.00831 74.3147L8.91497 74.6265L9.54769 70.7579L11.3853 71.0585L10.7526 74.9271L12.8388 75.2683L13.5958 70.6398Z" fill="#4D473A"></path> <path d="M14.9703 57.175C15.3704 57.3306 15.6555 57.6017 15.8256 57.9884C15.9957 58.375 16.0029 58.7684 15.8472 59.1685C15.7457 59.4295 15.5874 59.6433 15.3724 59.81C15.1573 59.9767 14.9156 60.083 14.6474 60.1289C14.3792 60.1747 14.1146 60.1469 13.8537 60.0454C13.5927 59.9439 13.3789 59.7856 13.2122 59.5706C13.0455 59.3555 12.9392 59.1138 12.8933 58.8456C12.8474 58.5774 12.8752 58.3128 12.9768 58.0519C13.0817 57.7822 13.2416 57.5641 13.4567 57.3974C13.6718 57.2306 13.9117 57.1287 14.1765 57.0915C14.4448 57.0456 14.7093 57.0734 14.9703 57.175Z" fill="#4D473A"></path> <path d="M24.5045 49.122L16.2426 43.5953L18.3054 40.5116C18.9126 39.604 19.6048 38.9722 20.3819 38.6162C21.1565 38.2472 21.9617 38.1178 22.7977 38.2278C23.6259 38.3327 24.4201 38.6394 25.1803 39.1479C26.0182 39.7084 26.6332 40.3669 27.0255 41.1233C27.4178 41.8798 27.577 42.6826 27.5032 43.5315C27.4345 44.3727 27.1226 45.2083 26.5673 46.0384L24.5045 49.122ZM23.8804 41.0912C23.1512 40.6034 22.4344 40.3991 21.7302 40.4782C21.026 40.5573 20.4429 40.9421 19.9811 41.6326L19.1949 42.8078L24.1055 46.0927L24.8917 44.9175C25.203 44.452 25.363 43.9863 25.3715 43.5204C25.3722 43.0493 25.2409 42.6077 24.9775 42.1957C24.7193 41.7759 24.3536 41.4078 23.8804 41.0912Z" fill="#4D473A"></path> <path d="M31.1977 39.8476L23.8584 33.144L26.8798 29.8361C27.1945 29.4916 27.5564 29.2406 27.9655 29.0834C28.374 28.9129 28.7964 28.8311 29.2327 28.8377C29.6622 28.8381 30.0785 28.9151 30.4819 29.0686C30.8915 29.2152 31.2479 29.427 31.5512 29.7039C32.006 30.1194 32.3256 30.6136 32.5101 31.1866C32.694 31.7464 32.7191 32.3002 32.5853 32.848L36.7872 33.7281L35.0783 35.5991L31.427 34.8427L30.379 35.9902L32.7462 38.1523L31.1977 39.8476ZM28.9008 34.64L30.3171 33.0894C30.4996 32.8896 30.5639 32.6323 30.51 32.3177C30.4493 31.9967 30.2707 31.7009 29.9744 31.4302C29.6781 31.1596 29.3648 31.0251 29.0345 31.0268C28.6974 31.0223 28.4407 31.1165 28.2645 31.3094L26.8954 32.8083L28.9008 34.64Z" fill="#4D473A"></path> <path d="M42.0935 29.5274C41.5202 29.9911 40.9097 30.3048 40.2619 30.4686C39.6155 30.6192 38.9721 30.6474 38.3317 30.5532C37.6854 30.4517 37.0838 30.242 36.5267 29.9243C35.9638 29.5993 35.4798 29.1865 35.0749 28.6857C34.664 28.1777 34.3651 27.6152 34.1782 26.9982C33.9927 26.368 33.9237 25.7336 33.9713 25.0949C34.0203 24.443 34.1956 23.8212 34.4971 23.2292C34.7986 22.6373 35.2287 22.1153 35.7875 21.6634C36.3608 21.1997 36.9707 20.8926 37.6171 20.7419C38.2649 20.5782 38.9083 20.55 39.5473 20.6573C40.1936 20.7589 40.7982 20.9721 41.3611 21.2971C41.9181 21.6148 42.3933 22.0168 42.7865 22.503C43.1973 23.011 43.4955 23.5801 43.6811 24.2103C43.868 24.8273 43.937 25.4617 43.888 26.1136C43.8403 26.7523 43.6687 27.3712 43.3731 27.9704C43.0788 28.5565 42.6523 29.0755 42.0935 29.5274ZM36.9104 27.2373C37.2332 27.6364 37.6146 27.9522 38.0545 28.1845C38.4887 28.4096 38.9491 28.5114 39.4358 28.4898C39.9226 28.4683 40.3836 28.2815 40.8191 27.9293C41.269 27.5654 41.5488 27.1471 41.6586 26.6742C41.7755 26.1955 41.7628 25.7196 41.6204 25.2467C41.4793 24.7605 41.2533 24.3252 40.9422 23.9406C40.6194 23.5414 40.2373 23.2322 39.7959 23.013C39.3559 22.7807 38.8955 22.6789 38.4147 22.7077C37.941 22.7306 37.4865 22.9182 37.0511 23.2703C36.6012 23.6342 36.3177 24.0555 36.2007 24.5342C36.0851 24.9998 36.0949 25.472 36.2301 25.9509C36.3726 26.4239 36.5993 26.8527 36.9104 27.2373Z" fill="#4D473A"></path> <path d="M47.8225 25.328L42.7605 16.7735L46.4112 14.6132C46.8208 14.3708 47.2442 14.2342 47.6814 14.2032C48.1219 14.1595 48.5498 14.2045 48.9651 14.3383C49.3757 14.464 49.7515 14.6592 50.0925 14.9238C50.4334 15.1884 50.7084 15.4974 50.9176 15.8508C51.2122 16.3488 51.3738 16.8876 51.4023 17.4673C51.4388 18.0421 51.3354 18.5913 51.0922 19.1149C50.8441 19.6304 50.447 20.0497 49.9008 20.373L48.1658 21.3996L49.7985 24.1588L47.8225 25.328ZM47.1462 19.6767L48.7608 18.7213C48.9937 18.5835 49.1351 18.3642 49.1849 18.0636C49.2348 17.763 49.1456 17.4199 48.9175 17.0343C48.6846 16.6408 48.4131 16.411 48.1029 16.3451C47.7961 16.2664 47.5302 16.2936 47.3053 16.4267L45.7631 17.3393L47.1462 19.6767Z" fill="#4D473A"></path> <path d="M69.9418 15.8245L68.2402 10.1522L67.4275 14.8979L66.2207 15.2599L62.93 11.7453L64.6316 17.4175L62.4325 18.0773L59.5763 8.55645L61.9632 7.84039L65.923 12.0752L66.9113 6.35599L69.2848 5.64395L72.141 15.1648L69.9418 15.8245Z" fill="#4D473A"></path> <path d="M81.5982 11.9055L81.8715 13.9029L74.95 14.8501L73.6023 5.0019L80.3989 4.07174L80.6723 6.06912L76.1504 6.68796L76.4124 8.60212L80.2962 8.0706L80.5486 9.91541L76.6648 10.4469L76.9515 12.5414L81.5982 11.9055Z" fill="#4D473A"></path> <path d="M94.7003 4.22297L97.1678 4.45135L99.6532 14.6639L97.3112 14.4471L96.7496 12.1596L93.6688 11.8745L92.7108 14.0213L90.3688 13.8046L94.7003 4.22297ZM96.519 10.5495L95.7142 6.63668L94.177 10.3327L96.519 10.5495Z" fill="#4D473A"></path> <path d="M108.16 16.8071L111.293 7.37353L113.472 8.09707L110.975 15.6173L115.545 17.135L114.91 19.0483L108.16 16.8071Z" fill="#4D473A"></path> <path d="M117.589 20.3478L121.797 11.3426L123.877 12.3147L119.669 21.3199L117.589 20.3478Z" fill="#4D473A"></path> <path d="M128.836 19.8982L125.8 24.7035L123.859 23.4772L129.168 15.0738L130.707 16.0459L131.475 23.4534L134.601 18.5061L136.542 19.7325L131.233 28.1358L129.647 27.1338L128.836 19.8982Z" fill="#4D473A"></path> <path d="M139.928 32.9689L138.615 34.4988L133.313 29.9493L139.786 22.406L144.992 26.8734L143.679 28.4033L140.216 25.4311L138.958 26.8973L141.933 29.4501L140.72 30.8632L137.745 28.3104L136.368 29.9146L139.928 32.9689Z" fill="#4D473A"></path> <path d="M150.712 41.1481C150.371 41.4089 149.991 41.5113 149.573 41.4554C149.154 41.3995 148.814 41.2011 148.553 40.86C148.383 40.6376 148.283 40.3911 148.253 40.1207C148.222 39.8503 148.257 39.5887 148.357 39.3357C148.458 39.0828 148.619 38.8713 148.841 38.7012C149.064 38.5312 149.31 38.4309 149.581 38.4004C149.851 38.3699 150.113 38.4048 150.366 38.5052C150.619 38.6055 150.83 38.7669 151 38.9893C151.176 39.2192 151.279 39.4693 151.31 39.7397C151.34 40.0101 151.302 40.2681 151.196 40.5136C151.096 40.7665 150.935 40.978 150.712 41.1481Z" fill="#4D473A"></path> <path d="M152.632 53.4787L161.65 49.2977L163.21 52.6635C163.67 53.6542 163.849 54.574 163.749 55.4229C163.661 56.2764 163.353 57.0314 162.824 57.6881C162.304 58.3409 161.628 58.8596 160.799 59.2444C159.884 59.6684 159.002 59.8511 158.152 59.7926C157.302 59.7341 156.533 59.4525 155.847 58.9479C155.164 58.4517 154.612 57.7506 154.192 56.8445L152.632 53.4787ZM159.815 57.1233C160.611 56.7542 161.158 56.2484 161.457 55.6058C161.756 54.9632 161.731 54.2651 161.381 53.5115L160.786 52.2287L155.427 54.7137L156.021 55.9966C156.257 56.5046 156.571 56.8835 156.965 57.1331C157.367 57.3788 157.812 57.4963 158.301 57.4857C158.794 57.4836 159.299 57.3627 159.815 57.1233Z" fill="#4D473A"></path> <path d="M157.071 64.0191L166.614 61.2382L167.867 65.5393C167.998 65.9874 168.024 66.427 167.945 66.8581C167.878 67.2957 167.728 67.699 167.496 68.0682C167.272 68.4348 166.99 68.7503 166.649 69.015C166.31 69.2885 165.944 69.4828 165.55 69.5976C164.959 69.77 164.37 69.7859 163.785 69.6454C163.211 69.5112 162.725 69.2445 162.327 68.8454L159.389 71.9762L158.68 69.5434L161.226 66.8185L160.791 65.3265L157.713 66.2235L157.071 64.0191ZM162.713 64.7664L163.301 66.7826C163.376 67.0424 163.563 67.2312 163.859 67.3488C164.165 67.4639 164.511 67.4653 164.896 67.353C165.281 67.2407 165.559 67.0431 165.729 66.7602C165.909 66.4746 165.962 66.2064 165.888 65.9555L165.321 64.0066L162.713 64.7664Z" fill="#4D473A"></path> <path d="M160.217 78.6936C160.12 77.9627 160.169 77.2781 160.366 76.6397C160.574 76.0092 160.885 75.4451 161.298 74.9472C161.721 74.448 162.213 74.0432 162.774 73.7328C163.345 73.4211 163.949 73.2225 164.587 73.1371C165.235 73.0505 165.871 73.0879 166.495 73.2492C167.13 73.4185 167.707 73.6897 168.228 74.0626C168.759 74.4435 169.199 74.9167 169.548 75.4821C169.897 76.0476 170.119 76.6864 170.214 77.3988C170.312 78.1296 170.257 78.8102 170.049 79.4406C169.852 80.0791 169.542 80.6432 169.117 81.1331C168.695 81.6323 168.198 82.0377 167.628 82.3494C167.066 82.6599 166.476 82.8565 165.856 82.9395C165.209 83.0261 164.567 82.9847 163.933 82.8154C163.308 82.654 162.731 82.3829 162.2 82.002C161.679 81.629 161.239 81.1605 160.882 80.5963C160.534 80.0401 160.313 79.4059 160.217 78.6936ZM164.87 75.4582C164.361 75.5263 163.893 75.6878 163.465 75.9427C163.047 76.1963 162.721 76.5366 162.486 76.9635C162.251 77.3904 162.171 77.8814 162.245 78.4364C162.322 79.01 162.534 79.4666 162.88 79.8063C163.228 80.1553 163.641 80.3919 164.12 80.5163C164.608 80.6487 165.097 80.6821 165.588 80.6165C166.097 80.5485 166.559 80.383 166.976 80.1201C167.404 79.8652 167.73 79.5249 167.955 79.0992C168.182 78.6828 168.259 78.1971 168.184 77.642C168.108 77.0685 167.895 76.6072 167.547 76.2583C167.21 75.9173 166.801 75.6801 166.322 75.5464C165.844 75.422 165.36 75.3926 164.87 75.4582Z" fill="#4D473A"></path> <path d="M160.823 85.7712L170.762 85.898L170.708 90.1397C170.702 90.6156 170.598 91.0483 170.397 91.4378C170.206 91.8367 169.945 92.1788 169.614 92.4639C169.293 92.7492 168.931 92.9686 168.528 93.1221C168.124 93.2756 167.717 93.3498 167.307 93.3446C166.728 93.3372 166.184 93.1949 165.674 92.9177C165.164 92.6498 164.749 92.2758 164.428 91.7957C164.117 91.3157 163.966 90.7584 163.974 90.1238L163.999 88.1079L160.794 88.0671L160.823 85.7712ZM166.001 88.1335L165.977 90.0093C165.974 90.28 166.088 90.5148 166.318 90.7137C166.549 90.9127 166.889 91.015 167.336 91.0207C167.794 91.0266 168.131 90.9142 168.349 90.6836C168.576 90.4625 168.691 90.2213 168.694 89.96L168.717 88.1681L166.001 88.1335Z" fill="#4D473A"></path> <path d="M157.432 109.607L163.161 111.104L159.531 107.941L159.85 106.722L164.563 105.74L158.834 104.243L159.414 102.021L169.031 104.535L168.401 106.946L162.724 108.125L167.095 111.944L166.468 114.341L156.851 111.828L157.432 109.607Z" fill="#4D473A"></path> <path d="M154.716 121.6L152.868 120.794L155.66 114.39L164.772 118.362L162.03 124.65L160.182 123.845L162.006 119.661L160.235 118.889L158.669 122.482L156.962 121.738L158.528 118.145L156.59 117.3L154.716 121.6Z" fill="#4D473A"></path> <path d="M154.46 136.787L152.981 138.775L142.966 135.585L144.37 133.698L146.615 134.408L148.461 131.925L147.126 129.99L148.53 128.103L154.46 136.787ZM148.11 135.049L151.871 136.397L149.514 133.161L148.11 135.049Z" fill="#4D473A"></path> <path d="M136.714 141.734L143.141 149.316L141.389 150.801L136.266 144.756L132.592 147.87L131.288 146.333L136.714 141.734Z" fill="#4D473A"></path> <path d="M128.781 147.946L134.283 156.224L132.371 157.495L126.869 149.216L128.781 147.946Z" fill="#4D473A"></path> <path d="M123.317 157.785L120.792 152.692L122.849 151.673L127.264 160.578L125.634 161.387L118.908 158.19L121.507 163.433L119.45 164.452L115.035 155.547L116.716 154.713L123.317 157.785Z" fill="#4D473A"></path> <path d="M106.383 160.458L105.76 158.541L112.403 156.38L115.478 165.832L108.955 167.955L108.331 166.037L112.671 164.626L112.073 162.788L108.346 164.001L107.77 162.23L111.497 161.018L110.843 159.007L106.383 160.458Z" fill="#4D473A"></path> <path d="M93.7889 165.414C93.7436 164.987 93.8537 164.609 94.1192 164.281C94.3848 163.952 94.731 163.765 95.1579 163.72C95.4364 163.69 95.699 163.733 95.9458 163.848C96.1926 163.962 96.3979 164.128 96.5617 164.345C96.7255 164.563 96.8222 164.811 96.8517 165.089C96.8813 165.367 96.8387 165.63 96.7241 165.877C96.6095 166.124 96.4435 166.329 96.2263 166.493C96.009 166.657 95.7611 166.753 95.4827 166.783C95.195 166.813 94.9277 166.771 94.6809 166.657C94.4341 166.542 94.2335 166.376 94.0789 166.157C93.9151 165.94 93.8184 165.692 93.7889 165.414Z" fill="#4D473A"></path> </svg> 