<?xml version="1.0" encoding="UTF-8"?> <svg xmlns="http://www.w3.org/2000/svg" width="43" height="16" viewBox="0 0 43 16" fill="none"> <path d="M42.8328 7.71521C42.9443 7.79806 43 7.89472 43 8.00518C43 8.11564 42.9443 8.2123 42.8328 8.29515L33.8054 15.9586C33.7775 15.9862 33.7357 16 33.68 16C33.5964 16 33.5267 15.9724 33.471 15.9172C33.4153 15.8343 33.4153 15.7515 33.471 15.6686L39.3221 8.75081H0.208969C0.153244 8.75081 0.097519 8.66796 0.0417938 8.50227C0.0139313 8.30895 0 8.11564 0 7.92233C0 7.75664 0.0139313 7.60475 0.0417938 7.46667C0.0696564 7.30097 0.11145 7.21812 0.167175 7.21812H39.2803L33.471 0.300324C33.4431 0.300324 33.4292 0.300324 33.4292 0.300324C33.4292 0.272707 33.4292 0.258899 33.4292 0.258899C33.4292 0.203668 33.471 0.148436 33.5546 0.0932043C33.666 0.0103558 33.7496 -0.0172602 33.8054 0.0103562L42.8328 7.71521Z" fill="#393939"></path> </svg> 