<?xml version="1.0" encoding="UTF-8"?> <svg xmlns="http://www.w3.org/2000/svg" viewBox="0 0 100 100" fill-rule="evenodd"> <rect x="0" y="0" width="100" height="100" fill="#ffffff"></rect> <g fill="#d9c8a0"> <path d="M79 64a12 12 0 0 0-11.95 11H31.11a2.63 2.63 0 0 1-1.89-4.45l44.65-39.92A5.62 5.62 0 0 0 69.93 21h-32a12 12 0 1 0-.13 3h32.13a2.63 2.63 0 0 1 1.89 4.45L27.17 68.37A5.62 5.62 0 0 0 31.11 78h36.07A12 12 0 1 0 79 64ZM26 31a9 9 0 1 1 9-9 9 9 0 0 1-9 9Zm53 54a9 9 0 1 1 9-9 9 9 0 0 1-9 9Z"></path> <path d="M83.89 71.7a1.5 1.5 0 0 0-2.12 0l-2.58 2.58-2.59-2.58a1.5 1.5 0 0 0-2.12 2.12l2.58 2.58-2.58 2.6a1.5 1.5 0 1 0 2.12 2.12l2.58-2.58 2.58 2.58A1.5 1.5 0 0 0 83.89 79l-2.58-2.58 2.58-2.58a1.5 1.5 0 0 0 0-2.14ZM26 18.5a3.5 3.5 0 1 0 0 7 3.5 3.5 0 1 0 0-7z"></path> </g> </svg> 