<?xml version="1.0" encoding="UTF-8"?> <svg xmlns="http://www.w3.org/2000/svg" viewBox="0 0 100 100" fill-rule="evenodd"> <rect x="0" y="0" width="100" height="100" fill="#ffffff"></rect> <g fill="#d9c8a0"> <path d="M36.288 65.392H55.7a1.5 1.5 0 1 0 0-3H36.288a1.5 1.5 0 1 0 0 3zm26.278 4.305H28.984a1.5 1.5 0 1 0 0 3h33.582a1.5 1.5 0 1 0 0-3zM55.7 76.998H36.288a1.5 1.5 0 1 0 0 3H55.7a1.5 1.5 0 1 0 0-3zM36.45 42.441h7.25v7.254a1.5 1.5 0 1 0 3 0v-7.254h7.24a1.5 1.5 0 1 0 0-3H46.7v-7.25a1.5 1.5 0 1 0-3 0v7.25h-7.25a1.5 1.5 0 1 0 0 3z"></path> <path d="M79.95 12.215H27.939a1.5 1.5 0 0 0-1.5 1.5v7.186h-7.251a1.5 1.5 0 0 0-1.5 1.5v65.883a1.5 1.5 0 0 0 1.5 1.5h52.019a1.5 1.5 0 0 0 1.5-1.5v-7.186h7.243a1.5 1.5 0 0 0 1.5-1.5V13.714a1.5 1.5 0 0 0-1.5-1.499zm-59.262 74.57V23.902h49.019v55.63c-.001.023-.007.045-.007.068s.006.045.007.068v7.118H20.688v-.001zm57.762-8.686h-5.743V22.401a1.5 1.5 0 0 0-1.5-1.5H29.439v-5.686H78.45v62.884z"></path> </g> </svg> 