<?xml version="1.0" encoding="UTF-8"?> <svg xmlns="http://www.w3.org/2000/svg" width="303" height="86" fill="none" viewBox="0 0 303 86"><path fill="#3284FF" fill-rule="evenodd" d="M22.58 4.978c1.21-1.123 2.382-2.167 1.935-2.244-.326-.054-1.511.513-3.113 1.45C-8.79 21.652-1.682 75.972 37.64 85.795v.046c1.15.098 2.305.16 3.47.16 4.73 0 9.272-.814 13.515-2.304 3.804-1.458 5.962-2.566 9.606-4.85.402-.265.79-.551 1.18-.83C31.1 88.867-8.417 34.993 22.58 4.979zm5.126 4.54c.272-1.494.449-2.117.07-2.465-.367-.343-1.173.543-2.15 1.899C6.237 36.085 48.601 77.28 76.16 66.606a44.158 44.158 0 006.179-15.212v-.013C67.208 63.233 22.936 35.456 27.706 9.52zm50.77 12.916c-3.365 10.159-34.668-7.315-39.4-16.96-.502-1.027-.916-1.28-1.086-1.217-.336.116-.598.487-.828 1.618C34.25 20.144 65.4 45.975 83.101 39.34c0 0 .052-.41-.093-1.221a44.154 44.154 0 00-4.532-15.684z" clip-rule="evenodd"></path><path fill="#fff" fill-opacity=".35" fill-rule="evenodd" d="M65.639 8.496c.35.146 3.302 1.514 2.604.653-.77-.95-1.757-1.72-2.574-2.206-49.498-28.9-88.267 39.79-50.503 70.99 1.434 1.182 2.427 2.046 2.762 2.064.454.016 8.883 6.186 2.697-3.75C-2.794 38.62 25.031-11.64 65.64 8.496zm17.475 29.876l-.005-.023a44.325 44.325 0 00-4.428-15.847C62.66 2.87 1.105 23.077 22.157 73.806c.645 1.553 1.52 2.44 1.926 2.145.408-.302 2.357-.483 2.145-1.986-5.604-39.696 43.196-49.17 56.885-35.593zM33.486 79.42c.33 1.117.32 1.561.645 1.72.156.073 4.577 1.43 4.706.29 1.409-12.231 34.122-24.901 36.337-14.408 2.92-4.458 5.941-8.89 7.108-14.403.03-.765.283-1.018.283-1.018-2.889-9.559-57.33-.018-49.08 27.82z" clip-rule="evenodd"></path><path fill="#3284FF" fill-rule="evenodd" d="M107.639 55.41h3.493l5.154 15.038h.049l5.154-15.037h3.493v17.87h-2.279V58.243h-.05l-5.129 15.038h-2.428l-5.128-15.038h-.05v15.038h-2.279V55.41zm20.923 4.851h2.28v9.98h.049l6.517-9.98h2.613v13.02h-2.291V63.3h-.05l-6.504 9.98h-2.614V60.26zm14.693 0h2.279v1.787h.05c.148-.3.334-.583.557-.85.231-.268.504-.5.818-.694a4.09 4.09 0 011.102-.474c.422-.113.901-.17 1.437-.17.711 0 1.392.134 2.044.401a4.935 4.935 0 011.735 1.204c.504.534.904 1.207 1.201 2.017.298.803.446 1.739.446 2.809 0 1.337-.14 2.475-.421 3.416-.272.931-.665 1.693-1.177 2.285a4.376 4.376 0 01-1.833 1.288c-.719.268-1.52.402-2.403.402-.438 0-.847-.057-1.227-.17a4.714 4.714 0 01-1.028-.438 4.197 4.197 0 01-.768-.608 2.861 2.861 0 01-.483-.656h-.05v6.6h-2.279V60.261zm2.23 6.577c0 .705.07 1.357.21 1.957.141.591.355 1.106.644 1.544a3.33 3.33 0 001.103 1.033c.446.243.97.365 1.573.365.628 0 1.169-.122 1.623-.365a3.21 3.21 0 001.14-1.033c.297-.438.516-.953.656-1.544.141-.6.211-1.252.211-1.957 0-.738-.07-1.414-.211-2.03-.14-.616-.359-1.147-.656-1.593a3.065 3.065 0 00-1.14-1.033c-.454-.251-.995-.377-1.623-.377-.603 0-1.127.126-1.573.377a3.17 3.17 0 00-1.103 1.033c-.289.446-.503.977-.644 1.593a9.163 9.163 0 00-.21 2.03zm19.077-6.577h2.28v9.98h.049l6.517-9.98h2.614v13.02h-2.292V63.3h-.05l-6.504 9.98h-2.614V60.26zm14.817 0h2.279v5.252h6.194V60.26h2.292v13.02h-2.292v-5.823h-6.194v5.823h-2.279V60.26zm14.122 0h5.649c1.619 0 2.829.296 3.63.887.809.592 1.214 1.451 1.214 2.578 0 .6-.149 1.106-.446 1.52a4.31 4.31 0 01-1.177 1.093c.702.26 1.26.632 1.673 1.119.413.486.619 1.114.619 1.884 0 .608-.103 1.155-.31 1.641-.206.486-.52.9-.941 1.24-.421.34-.958.604-1.611.79-.644.178-1.408.267-2.291.267h-6.009V60.262zm2.28 11.232h3.468c.603 0 1.103-.044 1.499-.133.405-.097.727-.235.967-.413.239-.179.409-.394.508-.645.099-.251.148-.535.148-.85 0-.317-.049-.6-.148-.852a1.389 1.389 0 00-.508-.644c-.24-.178-.562-.312-.967-.401-.396-.097-.896-.146-1.499-.146h-3.468v4.084zm0-5.725h3.444c.768 0 1.375-.15 1.821-.45.446-.3.669-.766.669-1.398 0-.356-.062-.652-.186-.887a1.57 1.57 0 00-.496-.584 1.892 1.892 0 00-.706-.304 3.217 3.217 0 00-.793-.097h-3.753v3.72zm22.918 3.355a4.987 4.987 0 01-.595 1.665 5.48 5.48 0 01-1.201 1.46 5.86 5.86 0 01-1.759 1.032c-.669.268-1.413.402-2.23.402a7.033 7.033 0 01-2.478-.426 5.38 5.38 0 01-1.957-1.3c-.545-.584-.975-1.313-1.289-2.189-.314-.875-.47-1.904-.47-3.087 0-.795.086-1.512.26-2.152a7.161 7.161 0 01.718-1.726c.306-.51.657-.948 1.053-1.313a5.942 5.942 0 012.614-1.447 5.262 5.262 0 011.338-.182c.909 0 1.739.134 2.49.401a4.995 4.995 0 011.933 1.228c.545.543.966 1.228 1.263 2.054.306.819.459 1.783.459 2.893v1.119h-9.7c.008.632.099 1.207.272 1.726.174.51.421.948.743 1.313.323.365.711.648 1.165.85a3.99 3.99 0 001.561.293c.586 0 1.082-.081 1.486-.243a3.27 3.27 0 001.016-.62c.273-.252.492-.531.657-.84.173-.307.318-.611.433-.91h2.218zm-2.143-3.355c-.017-.632-.116-1.195-.298-1.69a3.334 3.334 0 00-.743-1.24 2.966 2.966 0 00-1.14-.766 3.97 3.97 0 00-1.486-.267c-.52 0-.999.101-1.437.304-.438.194-.822.47-1.152.826a3.968 3.968 0 00-.793 1.253 5.041 5.041 0 00-.359 1.58h7.408zm15.398 2.93a6.81 6.81 0 01-.198 1.033 5.545 5.545 0 01-.409 1.118 5.233 5.233 0 01-.706 1.058c-.281.34-.627.644-1.04.912-.405.259-.884.466-1.437.62-.554.162-1.186.243-1.896.243-.388 0-.797-.049-1.226-.146a4.755 4.755 0 01-1.264-.462 5.816 5.816 0 01-1.164-.839 5.31 5.31 0 01-.967-1.288 7.638 7.638 0 01-.656-1.775c-.165-.681-.248-1.46-.248-2.334 0-1.078.157-2.047.471-2.906.314-.867.731-1.6 1.251-2.2a5.582 5.582 0 011.833-1.386 5.2 5.2 0 012.206-.486c.693 0 1.304.073 1.833.219a5.35 5.35 0 011.4.583c.396.243.731.527 1.003.851.273.316.492.653.657 1.01.173.348.301.704.384 1.069.091.365.149.713.173 1.045h-2.13c-.116-.883-.43-1.576-.942-2.078-.504-.503-1.214-.754-2.131-.754-.627 0-1.177.126-1.647.377a3.345 3.345 0 00-1.165 1.057c-.305.446-.537.99-.694 1.63a9.173 9.173 0 00-.223 2.09c0 .86.083 1.6.248 2.225.165.616.401 1.126.706 1.532.306.397.678.692 1.115.887.446.186.95.28 1.512.28.396 0 .772-.07 1.127-.207.355-.146.673-.353.954-.62.281-.276.52-.612.718-1.01.199-.396.339-.846.422-1.348h2.13zm5.786-6.492h-4.572v-1.945h11.422v1.945h-4.571v11.075h-2.279V62.206zm9.155-1.945h2.279v9.98h.05l6.516-9.98h2.614v13.02h-2.292V63.3h-.05l-6.504 9.98h-2.613V60.26zm14.816 0h2.279v11.074h6.194V60.261h2.292v11.074h1.635v5.13h-2.13v-3.184h-10.27V60.26zm14.494 0h2.279v9.98h.05l6.516-9.98h2.614v13.02h-2.292V63.3h-.049l-6.504 9.98h-2.614V60.26zm18.397-5.057c.107.519.33.932.668 1.24.339.3.839.45 1.499.45.669 0 1.173-.146 1.512-.438.338-.3.557-.717.656-1.252h2.119a2.942 2.942 0 01-.322 1.325c-.207.39-.5.721-.88.997a4.24 4.24 0 01-1.35.644 6.424 6.424 0 01-1.735.219 6.417 6.417 0 01-1.734-.219 4.072 4.072 0 01-1.338-.632 3.09 3.09 0 01-.879-.997 2.955 2.955 0 01-.322-1.337h2.106zm-3.581 5.057h2.28v9.98h.049l6.517-9.98h2.613v13.02h-2.291V63.3h-.05l-6.504 9.98h-2.614V60.26zM107.641 6.976h26.488v6.263h-18.888v8.07h9.035c.545 0 1.246.017 2.105.05.858.033 1.765.157 2.723.372.973.198 1.947.52 2.921.965a8.551 8.551 0 012.673 1.906c.793.809 1.436 1.849 1.931 3.12.495 1.254.743 2.805.743 4.653 0 1.832-.248 3.375-.743 4.63-.495 1.254-1.13 2.294-1.906 3.119a8.438 8.438 0 01-2.55 1.881c-.94.43-1.856.751-2.748.966-.874.198-1.683.313-2.426.346-.726.033-1.262.05-1.609.05h-17.749V6.977zm7.6 30.103h8.218c.694 0 1.403-.05 2.129-.149a5.85 5.85 0 002.03-.643 3.944 3.944 0 001.535-1.46c.396-.661.594-1.536.594-2.625 0-1.139-.198-2.03-.594-2.673-.379-.66-.883-1.156-1.51-1.486-.627-.33-1.337-.536-2.129-.619a22.219 22.219 0 00-2.352-.123h-7.921v9.778zm29.038-30.103h7.6V21.78l13.912-14.804h9.828L160.766 21.88l15.72 21.488h-9.63L155.592 27.25l-3.713 3.788v12.328h-7.6V6.977zm59.314 11.957a29.787 29.787 0 00-.371-1.188 7.333 7.333 0 00-.619-1.386 7.149 7.149 0 00-.966-1.362 5.731 5.731 0 00-1.436-1.188c-.577-.347-1.27-.627-2.079-.842-.809-.214-1.758-.322-2.847-.322-.462 0-1.007.058-1.634.174a7.282 7.282 0 00-1.931.668c-.66.314-1.312.76-1.955 1.337-.644.577-1.222 1.337-1.733 2.277-.495.925-.9 2.047-1.213 3.367-.314 1.32-.471 2.888-.471 4.704 0 1.963.207 3.721.619 5.272.413 1.552 1.007 2.864 1.783 3.936.775 1.073 1.708 1.898 2.797 2.476 1.106.561 2.352.842 3.738.842 1.601 0 2.905-.248 3.911-.743 1.007-.495 1.808-1.097 2.402-1.807.61-.71 1.064-1.452 1.361-2.228.297-.776.528-1.452.693-2.03h7.551c-.413 2.277-1.098 4.258-2.055 5.941-.957 1.667-2.121 3.053-3.49 4.16a14.078 14.078 0 01-4.63 2.475c-1.7.544-3.515.817-5.446.817-2.706 0-5.108-.446-7.204-1.337-2.079-.908-3.837-2.195-5.273-3.862-1.419-1.667-2.5-3.672-3.243-6.016-.742-2.36-1.114-4.992-1.114-7.896 0-2.245.215-4.275.644-6.09.429-1.816 1.023-3.425 1.782-4.828.776-1.419 1.684-2.64 2.724-3.663a14.61 14.61 0 013.391-2.55 15.237 15.237 0 013.887-1.485 17.278 17.278 0 014.109-.496c1.981 0 3.738.207 5.273.62 1.535.412 2.88.965 4.035 1.658 1.155.693 2.137 1.485 2.946 2.376.825.892 1.494 1.816 2.005 2.773.528.94.916 1.89 1.164 2.847.264.94.429 1.807.495 2.6h-7.6z" clip-rule="evenodd"></path></svg> 