<?xml version="1.0" encoding="UTF-8"?> <svg xmlns:xlink="http://www.w3.org/1999/xlink" xmlns="http://www.w3.org/2000/svg" width="89" height="83" viewBox="0 0 89 83" fill="none"><path d="M86.4782 45.0862C83.0572 42.3092 78.3522 42.0932 73.8012 41.8842C69.6622 41.6942 65.7532 41.5142 63.3212 39.4662C63.3212 39.4662 63.3202 39.4662 63.3202 39.4652C62.6852 38.9312 62.4722 38.5452 62.4852 38.3612C62.5412 37.5602 64.8762 36.0962 66.5812 35.0282C70.2762 32.7122 74.8752 29.8302 75.0972 24.9352C75.3012 20.4382 71.5962 15.3502 63.7722 9.38021C63.7342 9.34421 63.6952 9.31021 63.6542 9.27821C53.7792 1.62621 42.1632 -1.44479 30.9442 0.634212C20.0772 2.64721 10.5622 9.21421 4.83921 18.6522C-6.16679 36.8092 2.23921 62.1122 23.5792 75.0572C32.3742 80.3892 42.0972 82.9522 51.2852 82.9522C64.9542 82.9522 77.4372 77.2762 83.9092 66.6032C87.6132 60.4802 91.5852 49.2232 86.4782 45.0862ZM81.3432 65.0492C71.3642 81.5032 45.6232 84.9122 25.1342 72.4912C5.20921 60.4042 -2.74379 36.9502 7.40421 20.2082C12.6842 11.5012 21.4632 5.44221 31.4902 3.58521C33.5942 3.19521 35.7142 3.00221 37.8352 3.00221C46.1322 3.00221 54.4302 5.95221 61.7342 11.5872C61.7612 11.6122 61.7892 11.6372 61.8172 11.6602C61.8362 11.6762 61.8552 11.6922 61.8762 11.7072C68.8142 16.9872 72.2542 21.3912 72.1002 24.7982C71.9502 28.1222 68.2512 30.4402 64.9882 32.4852C62.1272 34.2792 59.6552 35.8282 59.4942 38.1522C59.4062 39.4152 60.0442 40.6292 61.3912 41.7602C64.6022 44.4622 69.2082 44.6742 73.6642 44.8782C77.9172 45.0732 81.9342 45.2582 84.5892 47.4132C87.7952 50.0132 84.7042 59.4922 81.3432 65.0492Z" fill="#DB9809"></path><path d="M50.8995 27.9762C52.7275 29.0882 54.7345 29.6712 56.6375 29.6712C57.3405 29.6712 58.0306 29.5912 58.6906 29.4302C60.4506 28.9992 61.8286 28.0302 62.6786 26.6232C64.7496 23.1832 62.8455 18.2172 58.4345 15.5522C55.9235 14.0282 53.0825 13.4982 50.6375 14.1022C48.8825 14.5352 47.5075 15.5082 46.6645 16.9092C45.8105 18.3162 45.5875 19.9912 46.0185 21.7522C46.6185 24.1942 48.3985 26.4632 50.8995 27.9762ZM49.2325 18.4612C49.7705 17.5662 50.6845 17.1812 51.3565 17.0152C51.7755 16.9122 52.2205 16.8612 52.6815 16.8612C54.0375 16.8612 55.5305 17.2992 56.8795 18.1182C56.8805 18.1182 56.8815 18.1192 56.8825 18.1202C59.8295 19.8992 61.3075 23.0852 60.1105 25.0742C59.5705 25.9672 58.6525 26.3512 57.9765 26.5162C56.3195 26.9202 54.2585 26.5092 52.4555 25.4122C50.6535 24.3222 49.3365 22.6872 48.9325 21.0382C48.7665 20.3612 48.6835 19.3662 49.2325 18.4612Z" fill="#DB9809"></path><path d="M60.6506 57.4252C60.6496 57.4252 60.6496 57.4252 60.6486 57.4242C58.7286 56.2602 56.4686 55.9162 54.2866 56.4522C52.1046 56.9892 50.2646 58.3432 49.1086 60.2572C47.9416 62.1682 47.5896 64.4212 48.1196 66.6012C48.6506 68.7892 50.0046 70.6382 51.9296 71.8062C53.2856 72.6312 54.7866 73.0252 56.2716 73.0252C59.1156 73.0252 61.8966 71.5832 63.4846 68.9772C64.6486 67.0602 64.9946 64.8022 64.4596 62.6192C63.9226 60.4362 62.5696 58.5922 60.6506 57.4252ZM60.9206 67.4172C59.3646 69.9722 56.0316 70.7892 53.4866 69.2422C52.2476 68.4902 51.3776 67.3002 51.0346 65.8912C50.6946 64.4932 50.9206 63.0462 51.6736 61.8142C52.4186 60.5802 53.6016 59.7102 55.0036 59.3652C55.4366 59.2592 55.8726 59.2062 56.3066 59.2062C57.2816 59.2062 58.2406 59.4722 59.0936 59.9892C60.3296 60.7402 61.1996 61.9272 61.5446 63.3332C61.8886 64.7382 61.6676 66.1892 60.9206 67.4172Z" fill="#DB9809"></path><path d="M34.6089 49.0562C32.6919 47.8922 30.4359 47.5432 28.2559 48.0792C26.0729 48.6142 24.2309 49.9672 23.0709 51.8852C21.9029 53.8042 21.5529 56.0642 22.0889 58.2472C22.6239 60.4282 23.9759 62.2712 25.8979 63.4402C27.2259 64.2472 28.7169 64.6602 30.2319 64.6602C30.9059 64.6602 31.5859 64.5782 32.2589 64.4122C34.4399 63.8742 36.2829 62.5182 37.4469 60.5982C38.6099 58.6892 38.9569 56.4372 38.4249 54.2562C37.8899 52.0692 36.5349 50.2222 34.6089 49.0562ZM34.8829 59.0402C34.1319 60.2802 32.9449 61.1532 31.5399 61.5002C30.1379 61.8452 28.6869 61.6242 27.4549 60.8772C26.2179 60.1242 25.3469 58.9372 25.0019 57.5322C24.6579 56.1302 24.8819 54.6782 25.6349 53.4412C26.3819 52.2062 27.5659 51.3372 28.9679 50.9922C29.3979 50.8882 29.8319 50.8352 30.2629 50.8352C31.2379 50.8352 32.1969 51.1022 33.0509 51.6202C33.0519 51.6212 33.0529 51.6222 33.0529 51.6222C34.2919 52.3722 35.1639 53.5602 35.5079 54.9682C35.8519 56.3692 35.6299 57.8142 34.8829 59.0402Z" fill="#DB9809"></path><path d="M26.2119 37.7672C27.3759 35.8512 27.7219 33.5952 27.1869 31.4152C26.6519 29.2322 25.2979 27.3882 23.3739 26.2242C21.4499 25.0562 19.1879 24.7092 17.0089 25.2472C14.8289 25.7832 12.9889 27.1382 11.8309 29.0582C9.42991 33.0122 10.6989 38.1912 14.6619 40.6052C15.9919 41.4122 17.4829 41.8262 18.9999 41.8262C19.6729 41.8262 20.3519 41.7442 21.0229 41.5792C23.2049 41.0432 25.0489 39.6882 26.2119 37.7672ZM23.6469 36.2112C22.8969 37.4492 21.7109 38.3202 20.3069 38.6662C18.9039 39.0122 17.4519 38.7892 16.2209 38.0412C13.6709 36.4882 12.8519 33.1572 14.3979 30.6112C15.1439 29.3742 16.3259 28.5042 17.7269 28.1592C18.1579 28.0532 18.5929 28.0002 19.0249 28.0002C20.0009 28.0002 20.9619 28.2672 21.8179 28.7872L21.8189 28.7882C23.0579 29.5382 23.9289 30.7242 24.2739 32.1282C24.6169 33.5302 24.3949 34.9802 23.6469 36.2112Z" fill="#DB9809"></path></svg> 