<?xml version="1.0" encoding="UTF-8"?> <svg xmlns="http://www.w3.org/2000/svg" viewBox="0 0 100 100" fill-rule="evenodd"> <g fill="#b3967b"> <path d="M36.258 58.956v-6.859c5.054-.594 8.958-4.207 8.958-8.575 0-4.364-3.904-7.975-8.958-8.569v-11.5c3.445.521 6.052 2.856 6.052 5.651a1.452 1.452 0 1 0 2.906 0c0-4.368-3.905-7.982-8.958-8.573V13.67a1.452 1.452 0 1 0-2.906 0v6.862c-5.058.591-8.967 4.205-8.967 8.574 0 4.364 3.909 7.974 8.967 8.565v11.507c-3.449-.519-6.061-2.856-6.061-5.655a1.452 1.452 0 1 0-2.906 0c0 4.372 3.909 7.988 8.967 8.577v6.857a1.452 1.452 0 1 0 2.906-.001zm6.052-15.434c0 2.795-2.606 5.13-6.052 5.653v-11.3c3.446.523 6.052 2.855 6.052 5.647zM27.291 29.105c0-2.796 2.611-5.131 6.061-5.651v11.294c-3.45-.52-6.061-2.851-6.061-5.643z"></path> <path d="M65.513 36.311c0-16.936-13.779-30.713-30.716-30.713S4.081 19.375 4.081 36.311 17.86 67.026 34.797 67.026s30.716-13.779 30.716-30.715zm-58.526 0c0-15.333 12.475-27.807 27.81-27.807s27.81 12.474 27.81 27.807c0 15.334-12.475 27.809-27.81 27.809S6.987 51.646 6.987 36.311zm88.886 28.024-3.049-11.877a1.456 1.456 0 0 0-1.764-1.047l-11.795 2.987a1.452 1.452 0 1 0 .713 2.817l8.433-2.135-15.337 23.864-9.899-14.431c-.283-.412-.738-.619-1.262-.63a1.455 1.455 0 0 0-1.202.737L47.402 88.183 33.34 77.894a1.454 1.454 0 0 0-1.938.201l-14.62 16.254a1.452 1.452 0 1 0 2.161 1.944l13.741-15.277 14.321 10.479a1.451 1.451 0 0 0 2.123-.458l12.968-22.956 9.819 14.313a1.454 1.454 0 0 0 2.421-.037l16.552-25.754 2.171 8.456a1.453 1.453 0 1 0 2.814-.724z"></path> </g> </svg> 